<?xml version="1.0" encoding="utf-8" ?><!-- created by svgstack.com | Attribution is required. --><svg xmlns="http://www.w3.org/2000/svg" xmlns:xlink="http://www.w3.org/1999/xlink" width="1024" height="1024"><path transform="scale(2 2)" d="M254.343 62.7691C265.185 62.3686 265.999 70.9127 268.908 79.1228L275.467 97.6828C278.838 107.502 308.332 191.059 308.883 191.611C309.129 191.857 324.347 193.473 326.239 193.707L435.541 206.208C438.883 206.596 442.436 206.819 445.704 207.606C452.083 209.141 454.604 218.185 449.833 222.78C447.037 225.472 443.688 227.701 440.539 229.957L367.915 282.055C359.65 288.128 350.909 293.906 343.08 300.528C345.989 310.099 348.426 319.881 351.045 329.539L374.591 414.824C376.44 421.534 382.495 436.188 377.973 442.369C371.968 450.576 362.915 441.937 357.428 437.97L257.534 366.625L256.77 365.958C254.835 365.59 250.098 369.909 248.471 371.062L156.001 436.343C151.291 439.614 144.791 446.096 138.548 444.249C127.827 441.077 132.395 430.778 134.324 423.758L159.112 336.65C162.593 324.617 165.873 312.527 169.479 300.528C162.392 295.079 154.994 290.107 147.808 284.802L65.4782 224.544C62.9377 222.66 60.512 220.841 60.0818 217.486C58.5759 205.744 74.0958 206.632 81.7148 205.792L107.638 202.804C139.265 199.114 170.997 195.72 202.551 191.454C212.803 161.522 223.71 131.824 234.594 102.118L242.802 80.0813C245.415 72.9582 246.132 65.158 254.343 62.7691Z"/><path fill="#FDC701" transform="scale(2 2)" d="M255.898 97.2502L289.99 193.748C297.059 213.833 301.305 209.275 322.525 211.808L417.832 223.102C388.641 242.855 358.828 264.998 330.681 286.188C327.628 288.486 324.407 290.698 321.729 293.434C323.587 297.851 324.665 302.575 325.903 307.195L349.241 392.806C351.138 399.814 353.181 406.775 354.921 413.824C348.273 408.35 340.994 403.514 333.99 398.505L269.548 352.562C265.033 349.359 260.605 345.844 255.898 342.944C231.272 360.858 206.251 378.214 181.46 395.897C181.088 389.699 188.118 369.82 189.845 362.904L189.845 362.904L223.09 339.303C228.77 335.235 245.925 321.783 251.906 319.876C260.555 317.118 268.524 325.094 274.964 329.607L309.546 354.182C314.106 357.389 318.341 361.176 323.339 363.71C321.685 357.103 319.678 350.558 317.864 343.991L307.036 304.301C301.886 285.119 296.826 283.945 314.059 271.465L346.349 247.984C354.368 242.225 362.799 236.648 370.25 230.167C362.227 228.608 353.871 228.069 345.754 227.095C338.519 226.227 288.582 220.447 285.869 218.941C280.967 216.22 279.397 209.253 277.6 204.389L262.519 162.783C260.814 157.987 258.898 153.167 257.534 148.264C254.381 143.254 249.999 125.63 246.546 122.938C249.609 114.404 253.181 105.888 255.898 97.2502Z"/><path fill="#FEE825" transform="scale(2 2)" d="M246.546 122.938C249.999 125.63 254.381 143.254 257.534 148.264C258.898 153.167 260.814 157.987 262.519 162.783L277.6 204.389C279.397 209.253 280.967 216.22 285.869 218.941C288.582 220.447 338.519 226.227 345.754 227.095C353.871 228.069 362.227 228.608 370.25 230.167C362.799 236.648 354.368 242.225 346.349 247.984L314.059 271.465C296.826 283.945 301.886 285.119 307.036 304.301L317.864 343.991C319.678 350.558 321.685 357.103 323.339 363.71C318.341 361.176 314.106 357.389 309.546 354.182L274.964 329.607C268.524 325.094 260.555 317.118 251.906 319.876C245.925 321.783 228.77 335.235 223.09 339.303L189.845 362.904L189.845 362.904C188.118 369.82 181.088 389.699 181.46 395.897C173.125 401.841 164.978 408.484 156.257 413.824C157.202 408.926 158.905 404.171 160.333 399.397L166.679 377.682C175.059 350.621 184.035 320.894 190.973 293.434C178.374 284.522 166.027 275.221 153.555 266.129L113.645 237.391C107.07 232.645 100.628 227.737 93.9711 223.102C97.9242 222.436 101.977 222.059 105.957 221.563L185.207 212.088C190.741 211.404 208.596 209.786 212.394 208.02C217.958 205.432 219.128 198.797 221.025 193.515L246.546 122.938Z"/></svg> 